<svg id="Layer_1" data-name="Layer 1" xmlns="http://www.w3.org/2000/svg" viewBox="0 0 812.04 217.02"><defs><style>.cls-1{fill:#b99551;}.cls-2{fill:#302e54;}</style></defs><path class="cls-1" d="M608.34,185.19h3.46c-.29,21.33-16.14,30.84-29.39,31.7,0,0-24.5,2.31-35.74-14.12l-17-25.07c-10.09,32.56-67.73,58.79-98.28,19.88-29.68-38.33,6.35-72.91,29.4-85.88l2.31,3.17c-17,11.53-33.15,42.66-8.65,72,18.16,21.33,57.64,20.75,72.62-13L462.23,80.58C434,42,449,6.52,481.25,1c19-3.46,32.86,2,41.5,11.82l-3.46,2.59c-8.36-8.93-21.61-13-32.85-8.65C468.57,13.43,465.11,38.5,479,59l86.74,126.51a29.46,29.46,0,0,0,22.77,13.26C597.68,198.74,606.9,195.28,608.34,185.19Z"/><path class="cls-2" d="M17.74,70.27C13.43,58.61,10.39,54,0,53.16V52.4c5.7.25,11.66.38,18.76.38,6.84,0,12.42-.13,19.39-.38v.76C29,53.79,25.47,58.1,28,65.83c6.84,21,15.33,44.74,20.53,58.17C54.62,108.92,61.21,91.81,67,76.48,62.1,63.68,59.69,54.3,49.93,53.16V52.4c6.47.38,12.3.38,17.87.38,6,0,11.15-.13,18-.38v.76c-10.65.76-13.56,5.19-10.9,12.8,7.48,21.8,15.46,43.72,20.78,57.28,4.18-11.41,10.52-29.65,17.62-52.09,4-12.92.13-17.23-12.17-18V52.4c4.82.12,9,.38,16.35.38,6.72,0,9.76-.13,15.21-.38v.76c-6,1.14-11.91,3.42-15.59,13.68C107.34,93.71,97,124,91.5,141.62l-.63.12C86.43,127.8,77.18,103.22,67.93,79c-6.08,14.45-18.63,46.51-24.08,62.61l-.63.12C37.89,125.14,23.83,87,17.74,70.27Z"/><path class="cls-2" d="M118,130.21a15.77,15.77,0,0,1,6.84-14.57c6.09-2,14.58-4.44,22.81-6.72v-7.73c-.12-6.08-1.14-10-3-12.42s-4.56-3.3-8.36-3.3a32.77,32.77,0,0,0-4.94.38l-.77.76a37.3,37.3,0,0,0-.12,11.92l-1.4,1a9.72,9.72,0,0,1-2.15.26c-3.68,0-5.83-2.29-5.83-5.33,0-3.42,3-5.7,8.87-9a32.69,32.69,0,0,1,13-3.54c7.61,0,14.45,3.8,14.45,18.63,0,7.09-.25,15.2-.25,20.65,0,10.52,1.39,14.45,6.59,14.45h5.45l.12.51-14.06,5.45c-2.54-.51-3.93-1-5.71-3.3-1-1.39-2-4-1.9-8.11-4.56,8-9.12,11.41-17.49,11.41A11.86,11.86,0,0,1,118,130.21Zm29.53-3.55c.25-3.93.12-8.24.12-16.73a147.24,147.24,0,0,0-16.22,6.59c-2.28,2.41-3.8,7-3.29,11.79.5,5.07,4.05,7.86,8.74,7.48C141.31,135.41,147.52,131.6,147.52,126.66Z"/><path class="cls-2" d="M178.57,118.17V87.63h-8.24l-.13-1c7.86-2.91,14.2-9.88,17.87-17.61l1.27.38a122.28,122.28,0,0,0-1,14.45L207,83.19l-1.14,4.57-17.61-.13v30.29c0,14.19,5.19,17.61,12.92,17.61a32.13,32.13,0,0,0,8.5-1.26l.25.63a116.3,116.3,0,0,1-12,6.72C182.37,141.62,178.57,137.05,178.57,118.17Z"/><path class="cls-2" d="M244.09,136a35,35,0,0,0,12.16-2.66l.38.76A86.75,86.75,0,0,1,239,141.87c-15.85.63-27.63-8.62-27.63-29,0-18.12,11.4-31.3,28.39-31.3,8.61,0,16,3.92,16,9.75,0,4.44-3.54,6.72-7.85,6.59l-1.14-.76c-1.65-8.23-4.57-14.19-10.4-14.19-9.88,0-14.32,12-14.32,24.21C222,123.62,228.5,136,244.09,136Z"/><path class="cls-2" d="M277.92,47.71l.25.38c-.37,3.93-.5,12.42-.5,20.4V91.94a126.48,126.48,0,0,1,12-8.62,28.82,28.82,0,0,1,7.35-1.14c10.77,0,16.22,6.84,16.22,21.8v21c0,11.79,2.28,14.07,9,14.83v.76c-5.2-.25-6.47-.38-12.55-.38-5.83,0-9.76.13-15,.38v-.76c7.35-.76,8.74-3.29,8.74-15.08V105.5c0-13.94-5.7-17.36-16.73-17.36a69.3,69.3,0,0,0-9.12,4.68v31.94c0,11.79.25,14.07,8.24,15.08v.76c-6.09-.25-7.35-.38-13.44-.38s-8.36.13-14.57.38v-.76c7.6-.63,10.14-3.29,10.14-15V69.76c0-9.25-1.14-11.66-2.54-13.69L258,54.17l-.12-.5C265,51.76,271.33,49.86,277.92,47.71Z"/><path class="cls-2" d="M327.85,112.34c0-18.25,10.4-30.79,24.34-30.79,14.32,0,19.77,10.51,19.51,23.31l-1.14,1H337.87c-.64,21.16,8.74,29.4,20.78,29.65a27.26,27.26,0,0,0,13.69-2.91l.38,1.14a129.1,129.1,0,0,1-16.35,8C338.63,143,327.85,132.87,327.85,112.34Zm33.84-8c0-11.16-3.42-21.55-10.77-21.55-8,0-12.93,9.51-13.05,22Z"/><path class="cls-2" d="M386.66,140.22c-4.69-1.39-6.34-3.29-6.59-6.71-.13-1.78,0-4.44.63-12.3h.76c1.52,8.24,8,19,17.11,19,8.74,0,13.31-5.57,13.31-12.54,0-6.72-5.07-10-12.93-11.92-11.15-2.79-17.74-6.84-17.74-17.11,0-9.88,8-17.1,21-17.1a33.9,33.9,0,0,1,9.38,1.14c4.31,1.14,5.71,3.29,6,6.46.13,1.39.13,4,.13,10.39H417c-2.41-6.59-8-16.73-15.85-16.73-8.23,0-11.27,5.58-11.27,11.41,0,6.46,3.92,10.26,13.05,12.54,11.91,2.92,17.49,8.24,17.49,17.37,0,10.9-10.27,17.61-22.43,17.61A45.53,45.53,0,0,1,386.66,140.22Z"/><path class="cls-2" d="M564.66,60.06c-1,17.74-1.9,41.31-2.28,62-.25,14.2,4.69,16.35,13.69,17v.76c-6.34-.25-10-.38-16.35-.38s-8.87.13-15.72.38V139c8.87-.76,14.45-2.91,15.72-17.36,1.39-18,2-34,3-55.25.51-10.78-1.27-12.55-14.45-14.07v-.76c5.45.13,7.73.25,13.18.25,4.56,0,7.61,0,12.17-.12,8.74,23.69,20.4,52.34,29.15,72.23,9.25-21.67,19.77-47,29.52-72.23,3.81.12,6.85.12,10.9.12,5.07,0,9-.12,12.8-.25v.76c-12.16.63-12.92,5.58-12.92,13.43.12,22.44.88,48.54,1.39,58.93.63,10.78,3.55,13.31,13.82,14.32v.76c-6.85-.25-11.41-.38-18.25-.38-8.11,0-12.55.13-20.92.38V139c11.16-1,14.2-3.8,14.2-14.82,0-16.23-1-47.53-1.65-65.78-10.14,24.33-22.81,55-33,80.86l-1.14.63C588.23,115.57,576.19,86.8,564.66,60.06Z"/><path class="cls-2" d="M660.34,110.75c0-17.23,10.14-30,27.76-30S716,93.64,716,110.75,705.71,141,688.1,141,660.34,128,660.34,110.75Zm44.36,0c0-17.23-5.07-29-16.6-29s-16.48,11.79-16.48,29S676.56,140,688.1,140,704.7,128,704.7,110.75Z"/><path class="cls-2" d="M721.17,87.56c6.34-1.77,13.69-4,20-6.46l.25.38a105.29,105.29,0,0,0-.63,14.83,50.63,50.63,0,0,1,7.09-9.64c3-3.29,5.58-4.94,7.86-5.57,6.59-.26,8.62,4.56,8.62,9a10.2,10.2,0,0,1-.51,3.42l-.76.63c-4.18-2.53-7.86-4.31-11.79-4.56-4.3.76-7.47,3.93-10.39,8v23.58c0,13.68,1,17.36,11.41,17.86v.76c-6.08-.25-9.51-.38-15.59-.38s-9.38.13-15.59.38V139c8.87-.63,10.14-4.3,10.14-17.74V103.66c0-9.26-1.14-11.66-2.53-13.69l-7.48-1.9Z"/><path class="cls-2" d="M767.18,111.51c0-18.25,10.39-30.79,24.33-30.79,14.32,0,19.77,10.52,19.52,23.32l-1.14,1h-32.7c-.64,21.16,8.74,29.4,20.78,29.66a27.36,27.36,0,0,0,13.69-2.92l.38,1.14a129.24,129.24,0,0,1-16.35,8C778,142.18,767.18,132,767.18,111.51Zm33.83-8C801,92.38,797.59,82,790.24,82c-8,0-12.92,9.5-13,22.05Z"/><path class="cls-2" d="M668.38,158.66h9V160H670v5h7v1.38h-7v5.18h7.4v1.38h-9Z"/><path class="cls-2" d="M687.27,171.3l.65-1.28a6.65,6.65,0,0,0,2.15,1.28,7.72,7.72,0,0,0,2.57.39,4.55,4.55,0,0,0,2.65-.67,2.2,2.2,0,0,0,.93-1.89,1.58,1.58,0,0,0-.44-1.15,3.05,3.05,0,0,0-1.18-.71,16.57,16.57,0,0,0-2-.55,17.63,17.63,0,0,1-2.73-.81,4.25,4.25,0,0,1-1.72-1.21,3.13,3.13,0,0,1-.66-2.07,3.74,3.74,0,0,1,.64-2.16A4.11,4.11,0,0,1,690,159a6.92,6.92,0,0,1,2.75-.51,8,8,0,0,1,2.76.46,5.94,5.94,0,0,1,2.18,1.34l-.63,1.28a6.9,6.9,0,0,0-2-1.27,6.43,6.43,0,0,0-2.26-.4,4.35,4.35,0,0,0-2.61.7,2.32,2.32,0,0,0-.94,2,1.83,1.83,0,0,0,.83,1.62,7.91,7.91,0,0,0,2.52.93c1.22.3,2.19.57,2.89.82a4.25,4.25,0,0,1,1.75,1.13,2.8,2.8,0,0,1,.7,2,3.66,3.66,0,0,1-.63,2.13,4.08,4.08,0,0,1-1.84,1.41,7.24,7.24,0,0,1-2.79.49A7.7,7.7,0,0,1,687.27,171.3Z"/><path class="cls-2" d="M711.82,160.08h-5v-1.42h11.63v1.42h-5v12.86h-1.69Z"/><path class="cls-2" d="M751.09,171.54v1.4h-9.2v-1.25l5-5.51a10.54,10.54,0,0,0,1.47-2,4,4,0,0,0,.45-1.81,2.32,2.32,0,0,0-.69-1.81,2.75,2.75,0,0,0-1.94-.63,6.3,6.3,0,0,0-4.05,1.65l-.63-1.28a6.21,6.21,0,0,1,2.14-1.29,7.26,7.26,0,0,1,2.58-.47,4.5,4.5,0,0,1,3.11,1,3.47,3.47,0,0,1,1.14,2.73,5.28,5.28,0,0,1-.55,2.37,11.29,11.29,0,0,1-1.84,2.54L744,171.54Z"/><path class="cls-2" d="M762.78,171.24a12.29,12.29,0,0,1,0-10.88,4.68,4.68,0,0,1,7.46,0,12.22,12.22,0,0,1,0,10.89,4.67,4.67,0,0,1-7.46,0Zm6.24-1a9.48,9.48,0,0,0,.81-4.48,9.37,9.37,0,0,0-.8-4.47,2.94,2.94,0,0,0-5,0,9.36,9.36,0,0,0-.81,4.46,9.48,9.48,0,0,0,.81,4.48,2.91,2.91,0,0,0,5,0Z"/><path class="cls-2" d="M791.62,171.54v1.4h-9.2v-1.25l5-5.51a9.75,9.75,0,0,0,1.47-2,4,4,0,0,0,.46-1.81,2.32,2.32,0,0,0-.69-1.81,2.79,2.79,0,0,0-1.95-.63,6.3,6.3,0,0,0-4.05,1.65l-.63-1.28a6.21,6.21,0,0,1,2.14-1.29,7.34,7.34,0,0,1,2.58-.47,4.5,4.5,0,0,1,3.11,1,3.44,3.44,0,0,1,1.15,2.73,5.29,5.29,0,0,1-.56,2.37,11.2,11.2,0,0,1-1.83,2.54l-4.06,4.39Z"/><path class="cls-2" d="M803.31,171.24a12.2,12.2,0,0,1,0-10.88,4.67,4.67,0,0,1,7.45,0,12.22,12.22,0,0,1,0,10.89,4.66,4.66,0,0,1-7.45,0Zm6.24-1a12.84,12.84,0,0,0,0-9,3,3,0,0,0-5,0,9.36,9.36,0,0,0-.81,4.46,9.48,9.48,0,0,0,.81,4.48,2.92,2.92,0,0,0,5,0Z"/></svg>